<?xml version="1.0" standalone="no"?>
<!DOCTYPE svg PUBLIC "-//W3C//DTD SVG 20010904//EN"
 "http://www.w3.org/TR/2001/REC-SVG-20010904/DTD/svg10.dtd">
<svg version="1.0" xmlns="http://www.w3.org/2000/svg"
 width="16.000000pt" height="16.000000pt" viewBox="0 0 16.000000 16.000000"
 preserveAspectRatio="xMidYMid meet">
<metadata>
Created by potrace 1.16, written by Peter Selinger 2001-2019
</metadata>
<g transform="translate(0.000000,16.000000) scale(0.100000,-0.100000)"
fill="#000000" stroke="none">
<path d="M0 80 l0 -80 80 0 80 0 0 80 0 80 -80 0 -80 0 0 -80z m65 20 c3 -11
10 -20 15 -20 5 0 12 9 15 20 12 37 35 23 35 -20 0 -22 -4 -40 -10 -40 -5 0
-10 8 -10 17 0 15 -2 14 -15 -3 -15 -19 -15 -19 -30 0 -13 17 -15 18 -15 3 0
-9 -4 -17 -10 -17 -5 0 -10 18 -10 40 0 43 23 57 35 20z"/>
</g>
</svg>
